<svg id="Capa_1" enable-background="new 0 0 511.918 511.918" height="512" viewBox="0 0 511.918 511.918" width="512" xmlns="http://www.w3.org/2000/svg"><path d="m496.818 168.205c-10.316-10.451-24.643-16.445-39.306-16.445-.001 0-.001 0-.001 0-12.767 0-24.395 4.656-32.784 13.156l-44.885 45.858c-2.715-8.044-7.272-15.671-13.679-22.161-6.293-6.376-13.953-11.127-22.2-13.959 17.158-19.945 15.759-50.983-3.763-70.76l-.833-.844c-10.035-10.168-23.814-15.999-37.805-15.999-12.032 0-23.298 4.172-32.147 11.802-2.555-8.031-6.959-15.584-13.242-21.949l-4.025-4.078c-10.29-10.425-24.029-16.166-38.683-16.166s-28.393 5.741-38.684 16.167l-53.341 54.039-14.791-67.233c-1.578-27.334-24.459-49.945-51.707-50.736-13.689-.377-26.53 4.662-36.12 14.245-9.714 9.707-14.846 22.767-14.451 36.775l5.313 188.183c-.547 3.128-1.089 6.191-1.62 9.192-10.325 58.382-17.785 100.563 23.932 142.824l62.886 63.708c24.602 24.923 58.296 39.217 92.443 39.217 32.229 0 62.147-12.329 84.243-34.715l226.645-229.607c18.805-19.05 18.18-50.683-1.395-70.514zm-149.839 75.554-73.175 74.132c-3.72 3.769-8.885 5.845-14.543 5.845-6.738 0-13.496-2.931-18.54-8.041v.001c-9.7-9.828-10.694-25.425-2.173-34.066l24.284-24.602 48.897-49.536c3.72-3.769 8.885-5.845 14.543-5.845 6.738 0 13.496 2.931 18.54 8.041 9.703 9.83 10.697 25.431 2.167 34.071zm-45.418-126.707c6.021 0 12.018 2.578 16.456 7.074l.833.844c8.722 8.837 9.411 23.069 1.505 31.08l-107.24 108.641c-3.531 3.578-8.389 5.548-13.677 5.548-6.02 0-12.017-2.578-16.454-7.072 0-.001-.001-.001-.001-.001l-.833-.844c-8.723-8.837-9.412-23.069-1.505-31.08l107.239-108.642c3.533-3.577 8.389-5.548 13.677-5.548zm-105.43-23.15c4.61-4.67 10.766-7.242 17.333-7.242s12.723 2.572 17.332 7.241l4.025 4.078c9.708 9.835 9.708 25.837-.001 35.673l-59.548 60.326-12.825 12.992c-4.609 4.667-10.763 7.238-17.328 7.238-6.568 0-12.724-2.572-17.333-7.242v-.001l-4.023-4.075c-9.708-9.836-9.708-25.839 0-35.675zm280.732 123.742-226.645 229.607c-16.416 16.631-38.751 25.79-62.893 25.79-26.178 0-52.09-11.04-71.093-30.291l-62.886-63.708c-30.826-31.229-25.784-59.734-15.74-116.525.619-3.499 1.252-7.081 1.892-10.751.172-.99.245-1.995.217-3l-5.355-189.697c-.16-5.671 1.853-10.895 5.668-14.707 3.69-3.687 8.691-5.621 14.045-5.478 11.935.346 22.309 10.938 22.653 23.129.027.941.142 1.879.344 2.799l19.451 88.414c-15.046 21.473-13.091 51.507 5.892 70.74l4.023 4.075c10.288 10.423 24.021 16.164 38.671 16.168-.31 13.99 4.944 28.297 15.694 39.188l.833.844c10.036 10.167 23.815 15.998 37.804 15.998 1.139 0 2.267-.051 3.391-.125.83 13.172 6.363 26.344 16.542 36.656 10.643 10.782 25.183 16.966 39.891 16.966 13.745 0 26.492-5.246 35.893-14.771l70.758-71.682c.979-.615 1.909-1.34 2.754-2.202l77.455-79.134c3.415-3.46 8.078-4.186 11.389-4.186h.001c6.596 0 13.308 2.811 17.955 7.52 7.966 8.07 8.606 21.058 1.396 28.363z"/></svg>