<?xml version="1.0" encoding="utf-8"?>
<!-- Svg Vector Icons : http://www.onlinewebfonts.com/icon -->
<!DOCTYPE svg PUBLIC "-//W3C//DTD SVG 1.1//EN" "http://www.w3.org/Graphics/SVG/1.1/DTD/svg11.dtd">
<svg version="1.1" xmlns="http://www.w3.org/2000/svg" xmlns:xlink="http://www.w3.org/1999/xlink" x="0px" y="0px" viewBox="0 0 1000 1000" enable-background="new 0 0 1000 1000" xml:space="preserve">
<metadata> Svg Vector Icons : http://www.onlinewebfonts.com/icon </metadata>
<g><g transform="translate(0.000000,512.000000) scale(0.100000,-0.100000)"><path d="M4913.7,4996c-281.7-69-504-276-599.9-561.5c-34.5-105.4-44.1-249.1-97.7-1653.9c-32.6-847.1-61.3-1542.8-63.2-1544.7c-3.8-3.8-231.9,504-509.8,1128.8c-277.9,624.8-532.8,1172.9-565.4,1220.8c-84.3,116.9-235.7,235.7-369.9,289.4c-90.1,36.4-147.6,44.1-302.8,46c-176.3,0-201.2-5.8-320.1-61.3c-70.9-32.6-164.8-90-207-124.6c-111.1-86.2-218.5-258.7-258.7-406.3c-67.1-249.1-67.1-254.9,486.8-2004.6c276-870.1,507.9-1604.1,517.4-1630.9c17.3-49.8,11.5-53.7-124.6-122.7c-352.6-174.4-590.3-530.9-615.2-929.5c-9.6-143.7,1.9-237.6,99.7-766.6c143.7-791.5,231.9-1059.8,471.4-1427.8c400.6-617.1,987-1019.6,1728.7-1182.5c185.9-42.2,235.7-44.1,990.8-44.1c753.2,0,804.9,1.9,990.8,44.1c1176.7,258.7,2037.2,1163.3,2219.3,2326.6c26.8,172.5,28.8,415.9,24.9,1876.2l-5.7,1676.9l-70.9,143.7c-88.1,178.2-216.6,302.8-394.8,387.1c-107.3,49.8-157.2,61.3-300.9,67.1c-166.7,7.7-249.2-9.6-415.9-82.4c-30.6-11.5-34.5-1.9-34.5,101.6c0,331.6-230,655.4-542.4,764.7c-145.7,49.8-431.2,46-565.4-9.6c-55.6-23-105.4-42.2-109.2-42.2c-5.8,0-9.6,414-9.6,918c0,864.3-1.9,925.7-38.3,1042.6C5793.4,4850.3,5344.9,5101.4,4913.7,4996z M5222.3,4599.2c113.1-30.7,216.6-109.2,274.1-207l51.7-88.2l5.7-1987.4l3.8-1989.3l-42.2-9.6C4886.9,162.6,3052.8-259,3043.2-249.4c-23,21.1-1050.2,3298.3-1050.2,3351.9c0,176.3,130.3,348.8,300.9,398.6c164.8,47.9,339.2-5.8,433.1-130.3c26.8-34.5,312.4-657.3,636.3-1385.6c323.9-726.3,607.5-1343.4,628.6-1366.4c63.2-69,136.1-99.7,233.8-99.7c203.1,0,312.4,116.9,327.7,348.8c5.7,76.7,34.5,847.1,65.2,1711.4c30.7,864.3,61.3,1609.8,67.1,1655.8c19.2,166.7,136.1,304.7,302.8,358.4C5090,4624.2,5126.4,4626.1,5222.3,4599.2z M6554.2,2119.3c65.2-32.6,149.5-118.8,187.8-191.7c28.8-51.7,32.6-172.5,32.6-1197.8c0-1031.1-3.8-1146.1-32.6-1199.7c-93.9-170.6-281.7-260.7-461.9-216.6c-128.4,28.8-266.4,161-299,281.7C5964-347.2,5960.1-9.9,5964,774c5.8,1215-1.9,1142.2,136.1,1274.5C6215,2159.6,6416.2,2190.2,6554.2,2119.3z M7730.9,1320.1c101.6-30.7,226.2-155.2,256.8-256.8c30.7-101.6,32.6-1571.5,1.9-1680.8c-82.4-297.1-504-379.5-703.3-136.1c-97.8,116.9-103.5,185.9-95.8,1034.9l5.7,768.5l57.5,93.9c44.1,70.9,84.3,107.3,161,147.6C7529.7,1348.9,7610.2,1356.6,7730.9,1320.1z M5423.5-274.3c0-253-103.5-484.9-285.6-645.9c-120.7-107.3-170.6-130.3-709.1-325.8c-258.7-95.8-507.9-193.6-553.9-220.4c-159.1-93.9-247.2-277.9-230-482.9c9.6-88.2,42.1-172.5,166.7-419.7c84.3-170.6,172.5-322,197.4-339.2c23-17.2,76.7-30.7,116.9-30.7c93.9,0,205.1,99.7,205.1,184c0,30.7-65.2,191.7-147.6,356.5c-126.5,258.7-143.7,306.6-126.5,346.9c17.2,36.4,107.3,74.8,515.5,222.3c569.2,205.1,689.9,264.5,866.3,433.1c105.4,99.7,249.1,297.1,277.9,381.4c3.8,9.6,44.1-19.2,92-65.2c46-46,149.5-113.1,228.1-151.4c134.2-65.2,155.2-69,325.8-69c201.2,0,322,32.6,450.4,120.7l74.8,51.7l126.5-126.5c141.8-141.8,272.1-212.7,458-247.2c141.8-24.9,320-1.9,460,59.4l82.4,36.4l-9.6-561.5c-9.6-603.7-24.9-712.9-138-1029.2C7556.5-3657,6765-4272.1,5843.2-4368c-245.3-24.9-1119.2-24.9-1358.8,0c-360.3,38.3-760.8,184-1056,385.2c-195.5,132.2-467.6,408.2-603.7,613.3c-237.6,356.5-295.1,530.9-438.9,1320.5c-120.7,665-122.7,724.4-26.8,929.5c55.6,120.7,210.8,276,327.7,331.6c78.6,36.4,2610.2,647.8,2704.2,653.5C5419.7-132.5,5423.5-151.7,5423.5-274.3z"/></g></g>
</svg>