<svg id="Capa_1" enable-background="new 0 0 512 512" height="512" viewBox="0 0 512 512" width="512" xmlns="http://www.w3.org/2000/svg"><g><path d="m413.774 0c-26.845 0-48.684 21.839-48.684 48.684v54.56c-5.757-2.402-12.067-3.734-18.684-3.734-12.893 0-24.622 5.047-33.341 13.258-8.719-8.211-20.448-13.258-33.341-13.258-12.808 0-24.469 4.979-33.17 13.095-8.701-8.115-20.362-13.095-33.17-13.095-26.844 0-48.684 21.839-48.684 48.684v57.42l-17.712-15.583c-22.37-21.978-58.446-21.855-80.665.363-10.822 10.822-16.782 25.211-16.782 40.516s5.96 29.694 16.782 40.516l53.813 53.814c6.83 42.438 30.283 80.159 65.307 105.191v81.569h220.874v-90.386c35.773-30.662 56.14-74.769 56.14-122.156v-250.774c.001-26.845-21.839-48.684-48.683-48.684zm-85.804 148.193c0-10.302 8.382-18.684 18.684-18.684s18.684 8.381 18.684 18.684v87.425c0 10.302-8.382 18.684-18.684 18.684s-18.684-8.382-18.684-18.684zm-66.929 0c0-10.302 8.382-18.684 18.684-18.684s18.684 8.381 18.684 18.684v109.538c0 10.302-8.382 18.684-18.684 18.684s-18.684-8.382-18.684-18.684zm-66.34 0c0-10.302 8.382-18.684 18.684-18.684s18.684 8.381 18.684 18.684v87.425c0 10.302-8.382 18.684-18.684 18.684s-18.684-8.382-18.684-18.684zm53.562 333.807h-32.818v-45.836h32.818zm65.237 0h-35.237v-45.836h35.237zm62.818 0h-32.818v-45.836h32.818zm56.14-182.542c0 40.579-17.208 79.292-54.813 106.706h-174.543c-29.769-21.196-49.852-52.914-54.605-94.992l-60.96-60.96c-10.644-10.644-10.644-27.962 0-38.605 10.645-10.643 27.961-10.643 38.605 0l39.844 35.083c5.028 21.526 24.364 37.613 47.398 37.613 8.096 0 15.729-1.997 22.453-5.508 7.868 16.328 24.583 27.622 43.887 27.622 19.197 0 35.83-11.172 43.751-27.353 6.838 3.668 14.645 5.754 22.932 5.754 26.844 0 48.684-21.839 48.684-48.684v-187.45c0-10.302 8.382-18.684 18.684-18.684s18.684 8.381 18.684 18.684v250.774z"/></g></svg>