<?xml version="1.0" encoding="iso-8859-1"?>
<!-- Generator: Adobe Illustrator 19.0.0, SVG Export Plug-In . SVG Version: 6.00 Build 0)  -->
<svg version="1.1" id="Capa_1" xmlns="http://www.w3.org/2000/svg" xmlns:xlink="http://www.w3.org/1999/xlink" x="0px" y="0px"
	 viewBox="0 0 512.001 512.001" style="enable-background:new 0 0 512.001 512.001;" xml:space="preserve">
<g>
	<g>
		<path d="M502.521,382.653L321.61,56.806C293.076,5.204,218.961,5.145,190.407,56.783L9.47,382.676
			c-27.614,49.942,8.456,111.245,65.608,111.245h361.849C494.077,493.921,530.154,432.628,502.521,382.653z M436.926,463.934H75.078
			c-34.328,0-55.91-36.825-39.378-66.724L216.637,71.316c17.124-30.969,61.583-31.009,78.741,0.023l180.912,325.847
			C492.861,427.154,471.214,463.934,436.926,463.934z"/>
	</g>
</g>
<g>
	<g>
		<path d="M449.311,411.697l-47.608-86.099c-4.5-8.138-15.259-10.256-22.506-4.439c-17.015,13.653-46.427,22.825-63.221,22.825
			c-24.803,0-44.981-20.179-44.981-44.981c0-32.14,32.912-53.948,62.47-41.459c13.055,5.516,25.837-8.624,18.957-21.067
			l-4.571-8.268c-18.755-33.919-53.091-54.167-91.85-54.167s-73.094,20.25-91.85,54.167L62.692,411.697
			c-5.516,9.975,1.711,22.25,13.122,22.25H436.19C447.586,433.946,454.833,421.682,449.311,411.697z M101.238,403.959
			l89.158-161.239c13.396-24.227,37.922-38.691,65.607-38.691c19.796,0,37.975,7.395,51.626,20.466
			c-37.424,4.164-66.62,35.99-66.62,74.507c0,41.338,33.631,74.969,74.969,74.969c17.83,0,45.036-6.793,67.387-19.57l27.403,49.557
			H101.238z"/>
	</g>
</g>
<g>
</g>
<g>
</g>
<g>
</g>
<g>
</g>
<g>
</g>
<g>
</g>
<g>
</g>
<g>
</g>
<g>
</g>
<g>
</g>
<g>
</g>
<g>
</g>
<g>
</g>
<g>
</g>
<g>
</g>
</svg>
