<svg id="Layer_1" enable-background="new 0 0 512.012 512.012" height="512" viewBox="0 0 512.012 512.012" width="512" xmlns="http://www.w3.org/2000/svg"><g><g><path d="m502.006 387.015c-6.724 0-9.906-2.252-14.722-5.662-5.877-4.16-13.191-9.338-26.278-9.338s-20.401 5.178-26.278 9.338c-4.816 3.41-7.998 5.662-14.722 5.662s-9.906-2.253-14.722-5.662c-5.877-4.16-13.19-9.338-26.278-9.338s-20.401 5.178-26.278 9.338c-4.816 3.41-7.998 5.662-14.722 5.662s-9.906-2.252-14.722-5.662c-5.877-4.16-13.191-9.338-26.278-9.338s-20.401 5.178-26.278 9.338c-4.816 3.41-7.998 5.662-14.722 5.662-32.131 0-57.193-9.455-74.489-28.102-17.497-18.863-26.18-47.033-24.662-79.703.769-.639 1.504-1.313 2.206-2.025 4.715-4.785 7.476-10.823 8.203-17.693 7.406.563 14.893-1.036 21.423-4.807 10.328-5.962 16.493-16.252 16.493-27.526 0-27.386-34.964-53.441-79.598-59.317-18.749-2.469-46.689-2.202-73.323 13.084-25.474 14.621-42.94 39.013-51.912 72.498-.227.844-.341 1.714-.341 2.588v57.781.155 188.064c0 5.522 4.477 10 10 10h492.001c5.523 0 10-4.478 10-10v-104.997c-.001-5.523-4.478-10-10.001-10zm-379.035-199.345c35.605 4.688 62.209 24.714 62.209 39.488 0 5.828-4.541 9.079-6.493 10.206-5.43 3.137-12.086 3.036-17.807-.267-3.548-2.048-7.985-1.727-11.199.813-3.214 2.539-4.555 6.781-3.383 10.707 1.361 4.561 2.209 10.782-1.481 14.527-4.434 4.5-14.686 5.32-26.119 2.09-3.704-1.046-7.684.126-10.228 3.018s-3.201 6.986-1.69 10.528c2.634 6.177.749 14.052-4.482 18.726-6.662 5.952-17.374 5.459-29.389-1.349-3.06-1.735-6.807-1.733-9.867.004-3.059 1.736-4.981 4.952-5.061 8.469-.196 8.629-7.719 13.55-14.102 15.142-7.56 1.888-17.537.457-23.873-8.751v-38.809c6.318-3.297 17.937-6.283 29.885 1.547 4.618 3.028 10.818 1.738 13.846-2.881s1.738-10.818-2.881-13.846c-13.876-9.097-27.677-9.542-38.653-6.837 3.102-9.211 6.905-17.111 11.202-23.89 8.023-5.852 29.922-15.328 52.487-.534 4.617 3.028 10.817 1.738 13.846-2.881 3.028-4.619 1.738-10.817-2.881-13.846-11.537-7.563-23.015-10.714-33.591-11.19 23.556-12.967 48.856-11.612 59.705-10.184zm-102.965 304.342v-25.922c7.709-1.676 12.858-5.328 17.211-8.422 4.787-3.402 7.949-5.65 14.623-5.65s9.836 2.248 14.623 5.65c5.86 4.166 13.152 9.35 26.21 9.35s20.351-5.185 26.21-9.35c4.787-3.402 7.95-5.65 14.623-5.65s9.836 2.248 14.623 5.65c5.86 4.166 13.153 9.35 26.21 9.35s20.351-5.184 26.211-9.349c4.001-2.844 6.892-4.898 11.664-5.48 5.482-.669 9.384-5.656 8.715-11.138s-5.661-9.388-11.137-8.715c-9.803 1.195-15.916 5.54-20.828 9.031-4.788 3.402-7.951 5.65-14.625 5.65-6.673 0-9.836-2.248-14.623-5.65-5.86-4.166-13.153-9.35-26.21-9.35s-20.35 5.184-26.21 9.35c-4.787 3.402-7.95 5.65-14.624 5.65-6.673 0-9.835-2.248-14.623-5.65-5.86-4.165-13.153-9.35-26.21-9.35s-20.351 5.185-26.21 9.35c-2.036 1.447-3.78 2.683-5.624 3.628v-108.438c4.276 2.04 8.9 3.324 13.716 3.788.341 16.75 3.381 44.982 30.483 72.085 1.953 1.952 4.512 2.929 7.071 2.929s5.119-.977 7.071-2.929c3.906-3.905 3.906-10.237 0-14.143-22.938-22.938-24.548-46.508-24.661-60.677 9.57-3.643 17.007-10.398 21.011-18.785 5.739 1.938 11.365 2.86 16.717 2.784 2.204 15.642 5.481 34.393 16.949 52.997 1.89 3.066 5.167 4.754 8.522 4.754 1.79 0 3.603-.48 5.238-1.488 4.702-2.898 6.164-9.059 3.266-13.76-9.994-16.215-12.496-33.091-14.561-48.094 1.672-1.055 3.279-2.243 4.794-3.596 7.363-6.578 11.637-15.842 12.254-25.32 3.054.209 5.999.178 8.811-.088.116 34.433 10.616 64.424 30.167 85.501 20.936 22.57 51.764 34.501 89.152 34.501 13.087 0 20.401-5.178 26.278-9.338 4.816-3.409 7.998-5.662 14.722-5.662 6.725 0 9.906 2.253 14.722 5.662 5.877 4.16 13.191 9.338 26.278 9.338s20.401-5.178 26.278-9.338c4.816-3.409 7.998-5.662 14.722-5.662s9.906 2.252 14.722 5.662c5.877 4.16 13.191 9.338 26.278 9.338s20.401-5.178 26.278-9.338c4.816-3.409 7.998-5.662 14.722-5.662 6.725 0 9.906 2.253 14.722 5.662 4.18 2.959 9.085 6.432 16.278 8.191v39.128c-1.844-.945-3.587-2.181-5.624-3.628-5.86-4.166-13.152-9.35-26.21-9.35s-20.351 5.184-26.21 9.35c-4.787 3.402-7.95 5.65-14.623 5.65s-9.836-2.248-14.623-5.65c-5.86-4.165-13.152-9.35-26.21-9.35s-20.351 5.185-26.21 9.35c-4.787 3.402-7.949 5.65-14.623 5.65s-9.837-2.248-14.625-5.65c-4.913-3.492-11.028-7.839-20.836-9.033-5.475-.664-10.468 3.235-11.136 8.718-.667 5.482 3.235 10.468 8.718 11.136 4.774.581 7.666 2.637 11.667 5.48 5.86 4.166 13.154 9.35 26.211 9.35s20.351-5.185 26.21-9.35c4.787-3.402 7.949-5.65 14.623-5.65 6.673 0 9.836 2.248 14.623 5.65 5.86 4.165 13.152 9.35 26.21 9.35s20.351-5.184 26.21-9.35c4.787-3.402 7.95-5.65 14.623-5.65s9.836 2.248 14.623 5.65c4.353 3.094 9.502 6.746 17.211 8.422v25.922h-471.998z"/><path d="m254.825 296.717 142.571 38.202c16.202 4.341 29.52 7.304 41.854 7.65.875.024 1.739.037 2.597.037 13.838-.001 25.61-3.21 37.833-10.268 14.324-8.271 19.25-26.653 10.979-40.978-8.27-14.323-26.65-19.251-40.979-10.98-2.939 1.697-5.382 2.322-8.706 2.229-5.858-.164-14.162-1.998-24.726-4.767l9.433-50.528c.889-4.31.806-8.704-.251-13.081l-9.716-39.876 2.556-5.65c4.132 3.144 8.976 5.144 14.159 5.829l44.757 7.274c16.284 2.689 31.728-8.374 34.417-24.66 2.69-16.288-8.373-31.729-24.686-34.423l-36.908-5.999-22.872-20.906c1.694-.744 3.364-1.563 4.989-2.502 11.566-6.678 19.84-17.46 23.296-30.36 7.135-26.63-8.726-54.101-35.355-61.236-12.899-3.455-26.375-1.683-37.941 4.995s-19.84 17.46-23.296 30.36c-1.996 7.45-2.19 14.965-.854 22.083-6.888-3.472-13.71-6.906-20.483-10.312l-29.581-26.009c-12.415-10.894-31.375-9.655-42.267 2.76-10.892 12.413-9.653 31.374 2.752 42.259l32.404 28.49c2.207 1.937 4.671 3.532 7.327 4.744l14.8 7.44-11.023 44.999c-.511 1.709-.871 3.472-1.073 5.261l-4.86 43.766-20.095 40.359-15.522-4.159c-7.741-2.073-15.826-1.01-22.765 2.996-6.94 4.007-11.904 10.477-13.978 18.217s-1.01 15.825 2.997 22.765c4.007 6.942 10.476 11.905 18.216 13.979zm237.046-142.826c-.894 5.407-6.022 9.079-11.452 8.184l-9.954-1.618 3.189-19.622 10.029 1.63c5.408.893 9.081 6.019 8.188 11.426zm-113.723-111.635c2.074-7.74 7.038-14.209 13.978-18.216 4.623-2.669 9.752-4.032 14.951-4.032 2.605 0 5.229.343 7.813 1.035 15.979 4.281 25.495 20.764 21.214 36.742-2.074 7.74-7.038 14.209-13.978 18.216s-15.025 5.069-22.764 2.997c-15.979-4.281-25.495-20.764-21.214-36.742zm-97.469-3.463c3.619-4.125 9.918-4.536 14.035-.924l7.759 6.822-13.141 14.945-7.736-6.801c-4.124-3.619-4.535-9.918-.917-14.042zm43.989 171.094c.523-1.051.858-2.187.987-3.354l5.054-45.512c.071-.631.203-1.258.392-1.863.062-.196.117-.396.166-.596l12.984-53.005c1.109-4.527-1.057-9.22-5.222-11.313l-22.102-11.11c-.137-.069-.276-.135-.417-.197-.909-.406-1.756-.95-2.51-1.611l-9.648-8.482 13.14-14.945 7.758 6.821c.64.563 1.35 1.042 2.111 1.425 26.214 13.18 53.076 26.745 82.12 41.473.143.072.287.142.433.207 1.115.5 2.116 1.191 2.973 2.055.115.116.232.229.353.339l25.475 23.286c1.436 1.313 3.223 2.178 5.143 2.489l10.055 1.634-3.189 19.622-15.247-2.478c-.119-.02-.238-.037-.358-.052-2.032-.256-3.912-1.123-5.416-2.489l-8.17-7.468c-2.365-2.162-5.624-3.062-8.76-2.414-3.138.645-5.777 2.755-7.098 5.674l-9.604 21.235c-.92 2.035-1.133 4.319-.604 6.488l10.527 43.204c.358 1.484.389 2.953.091 4.367-.016.075-.031.15-.045.227l-9.17 49.118-19.295-5.17 8.159-44.12c.302-1.634.192-3.318-.32-4.899l-10.737-33.159c-1.296-4.002-4.959-6.766-9.164-6.913-4.199-.14-8.052 2.353-9.625 6.255-1.413 3.506-2.93 7.673-4.537 12.085-2.83 7.773-6.037 16.583-8.726 21.709-.032.062-.063.122-.094.184l-17.354 34.82-19.589-5.249zm33.529 52.411-13.304-3.565 15.497-31.093c1.358-2.603 2.715-5.665 4.063-8.979l1.154 3.563zm-105.267 2.852c.691-2.579 2.346-4.736 4.659-6.071 1.541-.89 3.25-1.344 4.983-1.344.869 0 1.744.114 2.605.345l142.571 38.201c13.912 3.728 24.229 6.085 32.666 6.321 7.012.198 13.135-1.361 19.266-4.901 4.774-2.755 10.901-1.113 13.658 3.66 2.756 4.774 1.114 10.9-3.66 13.657-9.721 5.612-18.654 7.86-29.868 7.559-10.386-.292-22.398-3-37.239-6.977l-142.571-38.202c-2.58-.691-4.736-2.346-6.072-4.659-1.334-2.313-1.689-5.009-.998-7.589z"/><path d="m256.006 447.017h-.007c-5.523 0-9.996 4.478-9.996 10s4.48 10 10.003 10 10-4.478 10-10-4.477-10-10-10z"/></g></g></svg>