<?xml version="1.0" encoding="iso-8859-1"?>
<!-- Generator: Adobe Illustrator 19.0.0, SVG Export Plug-In . SVG Version: 6.00 Build 0)  -->
<svg version="1.1" id="Layer_1" xmlns="http://www.w3.org/2000/svg" xmlns:xlink="http://www.w3.org/1999/xlink" x="0px" y="0px"
	 viewBox="0 0 512 512" style="enable-background:new 0 0 512 512;" xml:space="preserve">
<g>
	<g>
		<path d="M272.083,438.566L153.017,319.498c-3.28-3.28-8.597-3.28-11.876,0c-3.28,3.28-3.28,8.597,0,11.876l119.066,119.068
			c1.639,1.64,3.789,2.46,5.938,2.46c2.149,0,4.299-0.82,5.938-2.46C275.363,447.162,275.363,441.845,272.083,438.566z"/>
	</g>
</g>
<g>
	<g>
		<path d="M505.694,127.06c-14.178-14.178-33.029-21.986-53.079-21.986c-20.051,0-38.902,7.808-53.079,21.986l-38.67,38.669
			l-94.631-94.631c-16.001-16.001-42.036-16.001-58.039,0c-8.289,8.289-12.272,19.271-11.973,30.156
			c-3.391-0.892-6.917-1.362-10.516-1.362c-10.962,0-21.267,4.27-29.019,12.021c-10.695,10.695-14.23,25.868-10.63,39.535
			c-10.894-0.307-21.888,3.677-30.185,11.973c-6.408,6.408-10.243,14.428-11.519,22.766l-38.929-38.929
			c-14.943-14.943-39.257-14.943-54.199,0C3.986,154.498,0,164.123,0,174.359c0,10.238,3.986,19.861,11.225,27.1l110.32,110.32
			c1.639,1.639,3.789,2.46,5.938,2.46c2.149,0,4.299-0.82,5.938-2.46c3.28-3.28,3.28-8.597,0-11.876l-19.815-19.815l14.258-14.258
			c3.28-3.28,3.28-8.597,0-11.876c-3.28-3.28-8.597-3.28-11.876,0l-14.258,14.258L60.418,226.9l14.258-14.258
			c3.28-3.28,3.28-8.597,0-11.876c-3.28-3.28-8.597-3.28-11.876,0l-14.258,14.258l-25.441-25.441
			c-4.066-4.067-6.305-9.473-6.305-15.224c0-5.75,2.24-11.157,6.305-15.223c8.395-8.394,22.053-8.394,30.446,0l118.24,118.24
			c7.751,7.751,18.057,12.021,29.019,12.019c10.962,0,21.268-4.27,29.019-12.02c11.686-11.686,14.827-28.72,9.444-43.294
			c10.036-0.34,19.975-4.323,27.619-11.967c7.638-7.638,11.621-17.562,11.967-27.591c4.509,1.67,9.323,2.549,14.275,2.549
			c10.962,0,21.268-4.27,29.019-12.021c6.408-6.408,10.243-14.428,11.519-22.766l15.32,15.32l-10.981,10.981
			c-3.28,3.28-3.28,8.597,0,11.876c1.639,1.639,3.789,2.46,5.938,2.46s4.299-0.82,5.938-2.46l61.528-61.528
			c11.006-11.006,25.638-17.067,41.203-17.067c7.625,0,15.023,1.464,21.883,4.242l-10.033,10.033
			c-13.296,13.296-17.437,32.748-11.148,50.037l-37.196,37.196c-15.1,15.1-23.416,35.177-23.416,56.533
			c0,16.868-6.57,32.727-18.497,44.656c-3.28,3.28-3.28,8.597,0,11.876c1.639,1.64,3.789,2.46,5.938,2.46s4.299-0.82,5.938-2.46
			c15.1-15.101,23.416-35.178,23.416-56.533c0-16.869,6.568-32.728,18.497-44.656l77.697-77.697
			C514.102,149.149,514.102,135.469,505.694,127.06z M217.95,265.5c-9.452,9.453-24.833,9.452-34.286,0l-6.458-6.458
			c-0.002-0.002-0.003-0.003-0.006-0.006l-49.457-49.457c-9.446-9.453-9.445-24.829,0.006-34.28c9.453-9.452,24.834-9.452,34.286,0
			l46.815,46.816l9.099,9.099C227.402,240.666,227.402,256.047,217.95,265.5z M310.272,173.176c-4.579,4.579-10.667,7.1-17.142,7.1
			c-6.475,0-12.564-2.522-17.143-7.1c-1.01-1.01-20.794-20.794-20.794-20.794c-3.28-3.28-8.597-3.28-11.876,0
			c-3.28,3.28-3.28,8.597,0,11.876l11.695,11.695c9.452,9.452,9.452,24.833,0,34.284c-9.452,9.453-24.833,9.453-34.286,0
			l-46.815-46.815l-5.347-5.347c-9.452-9.452-9.452-24.833,0-34.284c4.579-4.579,10.667-7.1,17.142-7.1
			c6.476,0,12.564,2.522,17.143,7.1l5.338,5.338c0.003,0.003,0.006,0.007,0.009,0.01c0.001,0.001,0.003,0.003,0.006,0.004
			l18.878,18.878c3.28,3.28,8.597,3.28,11.876,0c3.28-3.28,3.28-8.596,0-11.876l-18.89-18.89
			c-9.445-9.453-9.443-24.828,0.007-34.278c9.452-9.452,24.833-9.452,34.284,0l55.916,55.916
			C319.725,148.344,319.725,163.724,310.272,173.176z M493.818,145.68l-26.484,26.484c-0.646-8.775,2.471-17.607,9.008-24.143
			l13.069-13.069c1.524,1.246,2.996,2.573,4.408,3.984C495.676,140.796,495.676,143.822,493.818,145.68z"/>
	</g>
</g>
<g>
</g>
<g>
</g>
<g>
</g>
<g>
</g>
<g>
</g>
<g>
</g>
<g>
</g>
<g>
</g>
<g>
</g>
<g>
</g>
<g>
</g>
<g>
</g>
<g>
</g>
<g>
</g>
<g>
</g>
</svg>
